<svg width="25" height="17" viewBox="0 0 25 17" fill="none" xmlns="http://www.w3.org/2000/svg">
<path d="M0 0H2.43011V16.8H0V15.47V1.8V0Z" fill="#F5F5F5"/>
<path d="M14.3854 0H15.4033C17.173 0 18.4889 0.271449 19.3509 0.814347C20.2129 1.35128 20.6438 2.16861 20.6438 3.26634V5.33352C20.6438 5.62585 20.6943 5.88835 20.7951 6.12102C20.896 6.34773 21.0702 6.54162 21.3178 6.7027C21.5746 6.85781 21.9139 6.97713 22.3357 7.06065C22.7575 7.14418 23.2848 7.18594 23.9175 7.18594H24.5089V8.42983H23.9175C23.2481 8.42983 22.6979 8.46563 22.2669 8.53722C21.8451 8.60881 21.515 8.71918 21.2766 8.86832C21.0381 9.01151 20.8731 9.19645 20.7814 9.42315C20.6897 9.64986 20.6438 9.91832 20.6438 10.2286V13.3607C20.6438 13.8618 20.5521 14.3122 20.3687 14.7119C20.1853 15.1176 19.8873 15.4607 19.4747 15.7411C19.062 16.0274 18.521 16.2452 17.8516 16.3943C17.1822 16.5494 16.3661 16.8 15.4033 16.8H14.3854V15.47H14.9148C17.033 15.47 18.388 14.703 18.388 13.3607V10.2643C18.388 8.80866 19.3555 7.99133 21.2903 7.81236C19.3371 7.67514 18.3605 6.85483 18.3605 5.35142V3.30213C18.3605 1.93594 17.3106 1.25284 15.2107 1.25284H14.3854V0Z" fill="#F5F5F5"/>
<path d="M2.43011 7.81236L2.43011 8.42983H3.02122C3.69023 8.42983 4.2401 8.46563 4.67084 8.53722C5.09241 8.60881 5.42233 8.71918 5.66061 8.86832C5.89889 9.01151 6.06385 9.19645 6.15549 9.42315C6.24714 9.64986 6.29296 9.91832 6.29296 10.2286V13.3607C6.29296 13.8618 6.38461 14.3122 6.5679 14.7119C6.75119 15.1176 7.04904 15.4607 7.46144 15.7411C7.87385 16.0274 8.41455 16.2452 9.08357 16.3943C9.75258 16.5494 10.5682 16.8 11.5305 16.8H12.5478L12.52 15.47H11.8347C9.71771 15.47 8.54744 14.703 8.54744 13.3607V10.2643C8.54744 8.80866 7.58058 7.99133 5.64686 7.81236H2.43011Z" fill="#F5F5F5"/>
<path d="M12.5059 0H9.76471L2.43011 7.81236H5.64686L12.5059 0Z" fill="#F5F5F5"/>
</svg>
